<?xml version="1.0" encoding="UTF-8"?>
<svg xmlns="http://www.w3.org/2000/svg" xmlns:xlink="http://www.w3.org/1999/xlink" width="763.73pt" height="545.35pt" viewBox="0 0 763.73 545.35" version="1.1">
<defs>
<clipPath id="clip1">
  <path d="M 0 181 L 763.730469 181 L 763.730469 364 L 0 364 Z M 0 181 "/>
</clipPath>
</defs>
<g id="surface1">
<path style=" stroke:none;fill-rule:nonzero;fill:rgb(100%,100%,100%);fill-opacity:1;" d="M 0 545.351563 L 763.734375 545.351563 L 763.734375 -0.00390625 L 0 -0.00390625 Z M 0 545.351563 "/>
<g clip-path="url(#clip1)" clip-rule="nonzero">
<path style=" stroke:none;fill-rule:nonzero;fill:rgb(81.999207%,12.199402%,14.898682%);fill-opacity:1;" d="M 0.0742188 363.671875 L 763.660156 363.671875 L 763.660156 181.671875 L 0.0742188 181.671875 Z M 0.0742188 363.671875 "/>
</g>
<path style=" stroke:none;fill-rule:nonzero;fill:rgb(14.898682%,18.399048%,43.899536%);fill-opacity:1;" d="M 295.382813 37.949219 L 298.042969 46.316406 L 290.824219 41.269531 L 283.691406 46.339844 L 286.464844 37.949219 L 279.234375 32.929688 L 288.253906 32.847656 L 290.867188 24.753906 L 293.609375 32.847656 L 302.285156 32.929688 Z M 295.382813 74.265625 L 298.042969 82.632813 L 290.824219 77.582031 L 283.691406 82.652344 L 286.464844 74.265625 L 279.234375 69.238281 L 288.253906 69.160156 L 290.867188 61.066406 L 293.609375 69.160156 L 302.285156 69.238281 Z M 295.382813 110.574219 L 298.042969 118.941406 L 290.824219 113.894531 L 283.691406 118.964844 L 286.464844 110.574219 L 279.234375 105.554688 L 288.253906 105.472656 L 290.867188 97.378906 L 293.609375 105.472656 L 302.285156 105.554688 Z M 298.042969 155.257813 L 290.824219 150.207031 L 283.691406 155.277344 L 286.464844 146.890625 L 279.234375 141.863281 L 288.253906 141.785156 L 290.867188 133.691406 L 293.609375 141.785156 L 302.285156 141.863281 L 295.382813 146.890625 Z M 259.019531 37.949219 L 261.679688 46.316406 L 254.460938 41.269531 L 247.328125 46.339844 L 250.101563 37.949219 L 242.871094 32.929688 L 251.890625 32.847656 L 254.503906 24.753906 L 257.246094 32.847656 L 265.921875 32.929688 Z M 261.679688 155.257813 L 254.460938 150.207031 L 247.328125 155.277344 L 250.101563 146.890625 L 242.871094 141.863281 L 251.890625 141.785156 L 254.503906 133.691406 L 257.246094 141.785156 L 265.921875 141.863281 L 259.019531 146.890625 Z M 222.757813 74.265625 L 225.417969 82.632813 L 218.199219 77.582031 L 211.066406 82.652344 L 213.839844 74.265625 L 206.609375 69.238281 L 215.628906 69.160156 L 218.242188 61.066406 L 220.984375 69.160156 L 229.660156 69.238281 Z M 222.757813 110.574219 L 225.417969 118.941406 L 218.199219 113.894531 L 211.066406 118.964844 L 213.839844 110.574219 L 206.609375 105.554688 L 215.628906 105.472656 L 218.242188 97.378906 L 220.984375 105.472656 L 229.660156 105.554688 Z M 225.402344 155.257813 L 218.1875 150.207031 L 211.054688 155.277344 L 213.828125 146.890625 L 206.597656 141.863281 L 215.613281 141.785156 L 218.230469 133.691406 L 220.972656 141.785156 L 229.648438 141.863281 L 222.746094 146.890625 Z M 186.496094 37.949219 L 189.152344 46.316406 L 181.9375 41.269531 L 174.804688 46.339844 L 177.578125 37.949219 L 170.347656 32.929688 L 179.363281 32.847656 L 181.980469 24.753906 L 184.722656 32.847656 L 193.398438 32.929688 Z M 189.152344 155.257813 L 181.9375 150.207031 L 174.804688 155.277344 L 177.578125 146.890625 L 170.347656 141.863281 L 179.363281 141.785156 L 181.980469 133.691406 L 184.722656 141.785156 L 193.398438 141.863281 L 186.496094 146.890625 Z M 149.558594 110.152344 L 154.992188 93.714844 L 140.824219 83.871094 L 158.492188 83.714844 L 163.617188 67.855469 L 168.992188 83.714844 L 185.992188 83.871094 L 172.46875 93.714844 L 177.679688 110.109375 L 163.53125 100.214844 Z M 152.441406 155.257813 L 145.222656 150.207031 L 138.09375 155.277344 L 140.867188 146.890625 L 133.636719 141.863281 L 142.652344 141.785156 L 145.269531 133.691406 L 148.011719 141.785156 L 156.6875 141.863281 L 149.785156 146.890625 Z M 142.640625 32.847656 L 145.253906 24.753906 L 147.996094 32.847656 L 156.671875 32.929688 L 149.769531 37.949219 L 152.429688 46.316406 L 145.210938 41.269531 L 138.078125 46.339844 L 140.851563 37.949219 L 133.621094 32.929688 Z M 113.507813 74.265625 L 116.167969 82.632813 L 108.949219 77.582031 L 101.816406 82.652344 L 104.589844 74.265625 L 97.359375 69.238281 L 106.378906 69.160156 L 108.992188 61.066406 L 111.734375 69.160156 L 120.410156 69.238281 Z M 113.507813 110.574219 L 116.167969 118.941406 L 108.949219 113.894531 L 101.816406 118.964844 L 104.589844 110.574219 L 97.359375 105.554688 L 106.378906 105.472656 L 108.992188 97.378906 L 111.734375 105.472656 L 120.410156 105.554688 Z M 116.167969 155.257813 L 108.949219 150.207031 L 101.816406 155.277344 L 104.589844 146.890625 L 97.359375 141.863281 L 106.378906 141.785156 L 108.992188 133.691406 L 111.734375 141.785156 L 120.410156 141.863281 L 113.507813 146.890625 Z M 106.363281 32.847656 L 108.980469 24.753906 L 111.722656 32.847656 L 120.398438 32.929688 L 113.496094 37.949219 L 116.152344 46.316406 L 108.9375 41.269531 L 101.804688 46.339844 L 104.578125 37.949219 L 97.34375 32.929688 Z M 79.917969 155.257813 L 72.699219 150.207031 L 65.566406 155.277344 L 68.339844 146.890625 L 61.109375 141.863281 L 70.125 141.785156 L 72.742188 133.691406 L 75.484375 141.785156 L 84.160156 141.863281 L 77.257813 146.890625 Z M 70.113281 32.847656 L 72.730469 24.753906 L 75.472656 32.847656 L 84.148438 32.929688 L 77.246094 37.949219 L 79.902344 46.316406 L 72.683594 41.269531 L 65.550781 46.339844 L 68.328125 37.949219 L 61.09375 32.929688 Z M 41.132813 37.949219 L 43.792969 46.316406 L 36.574219 41.269531 L 29.441406 46.339844 L 32.214844 37.949219 L 24.984375 32.929688 L 34 32.847656 L 36.617188 24.753906 L 39.359375 32.847656 L 48.035156 32.929688 Z M 41.132813 74.265625 L 43.792969 82.632813 L 36.574219 77.582031 L 29.441406 82.652344 L 32.214844 74.265625 L 24.984375 69.238281 L 34 69.160156 L 36.617188 61.066406 L 39.359375 69.160156 L 48.035156 69.238281 Z M 41.132813 110.574219 L 43.792969 118.941406 L 36.574219 113.894531 L 29.441406 118.964844 L 32.214844 110.574219 L 24.984375 105.554688 L 34 105.472656 L 36.617188 97.378906 L 39.359375 105.472656 L 48.035156 105.554688 Z M 43.792969 155.257813 L 36.574219 150.207031 L 29.441406 155.277344 L 32.214844 146.890625 L 24.984375 141.863281 L 34 141.785156 L 36.617188 133.691406 L 39.359375 141.785156 L 48.035156 141.863281 L 41.132813 146.890625 Z M 215.613281 32.847656 L 218.230469 24.753906 L 220.972656 32.847656 L 229.648438 32.929688 L 222.746094 37.949219 L 225.402344 46.316406 L 218.1875 41.269531 L 211.054688 46.339844 L 213.828125 37.949219 L 206.597656 32.929688 Z M 0.0742188 181.675781 L 326.992188 181.675781 L 326.992188 0.304688 L 0.0742188 0.304688 Z M 0.0742188 181.675781 "/>
</g>
</svg>
