<svg id="_x33_0" enable-background="new 0 0 64 64" height="512" viewBox="0 0 64 64" width="512" xmlns="http://www.w3.org/2000/svg"><g><g><g><path d="m17.79 9.58.21.42h-4l-2-4c.61-1.23 1.87-2 3.24-2h.88c.23 1.94.79 3.82 1.67 5.58z" fill="#cf9e76"/></g><g><path d="m24 4c0 1.96-.58 3.87-1.66 5.5l-.34.5h-4l-.21-.42c-.88-1.76-1.44-3.64-1.67-5.58-.08-.66-.12-1.33-.12-2 3 0 5 .5 6.25 1s1.75 1 1.75 1z" fill="#d3a06c"/></g><g><path d="m22 10v4h-8v-4h4z" fill="#e6e9ed"/></g><g><path d="m33.66 32.34c.23 1.2.34 2.43.34 3.66 0 2.12-.41 4.15-1.16 6h-6.84v8h-12-3.75c-4.92-2.73-8.25-7.98-8.25-14 0-2.26.38-4.5 1.12-6.61s1.84-4.09 3.25-5.86l7.63-9.53h8l7.63 9.53c1.41 1.77 2.51 3.75 3.25 5.86.34.96.6 1.95.78 2.95z" fill="#cf9e76"/></g><g><path d="m54 22h8v38h-8z" fill="#b4dd7f"/></g><g><path d="m48 34v26h-10l5.11-2.55c.54-.28.89-.84.89-1.45s-.35-1.17-.89-1.45l-3.11-1.55v-19z" fill="#b4dd7f"/></g><g><path d="m34 42v8h-8v-8h6.84z" fill="#b4dd7f"/></g><g><path d="m10 50v12h-4c-2.21 0-4-1.79-4-4v-4c0-2.21 1.79-4 4-4z" fill="#aab2bd"/></g><g><path d="m43.11 54.55c.54.28.89.84.89 1.45s-.35 1.17-.89 1.45l-5.11 2.55-4 2v-6-6l6 3z" fill="#aab2bd"/></g><g><path d="m14 56h20v6h-20z" fill="#69d6f4"/></g><g><path d="m34 50v6h-20v-6h12z" fill="#ff826e"/></g><g><path d="m10.25 50h3.75v6 6h-4v-12z" fill="#ffeaa7"/></g></g><g><path d="m19 23.101v-2.101h-2v2h-4v5c0 2.757 2.243 5 5 5 1.654 0 3 1.346 3 3v3h-3c-1.654 0-3-1.346-3-3v-3h-2v3c0 2.414 1.721 4.434 4 4.899v2.101h2v-2h4v-5c0-2.757-2.243-5-5-5-1.654 0-3-1.346-3-3v-3h3c1.654 0 3 1.346 3 3v3h2v-3c0-2.414-1.721-4.434-4-4.899z"/><path d="m63 21h-10v38h-4v-26h-10v18.382l-4-2v-8.382h-.755c.497-1.613.755-3.288.755-5 0-1.019-.09-2.03-.238-3.032 9.626-3.57 17.304-11.561 20.2-21.693l-1.924-.55c-2.688 9.407-9.765 16.849-18.661 20.255-.725-2.929-2.069-5.696-3.969-8.071l-7.408-9.26v-3.346l.168-.252c1.198-1.798 1.832-3.89 1.832-6.051v-.414l-.293-.293c-.234-.235-2.473-2.293-8.707-2.293h-1v1c0 .338.01.677.03 1.014-1.676.074-3.168 1.026-3.924 2.538l-.224.448 2.118 4.236v3.413l-7.408 9.26c-2.961 3.701-4.592 8.35-4.592 13.091 0 5.063 2.259 9.803 6.05 13h-1.05c-2.757 0-5 2.243-5 5v4c0 2.757 2.243 5 5 5h28.236l4-2h24.764zm-20.342 34.447c.211.106.342.317.342.553s-.131.447-.342.553l-7.658 3.829v-8.764zm-29.658-4.447v10h-2v-10zm20-8v6h-6v-6zm0 8v4h-18v-4zm-18 6h18v4h-18zm7.987-52.514c-.087 1.591-.595 3.122-1.483 4.455l-.039.059h-2.838c-.911-1.863-1.459-3.907-1.593-5.979 3.502.151 5.292 1.043 5.953 1.465zm-1.987 6.514v2h-6v-2zm-5.764-6h.021c.234 1.373.626 2.719 1.168 4h-1.807l-1.477-2.954c.489-.654 1.256-1.046 2.095-1.046zm-12.236 31c0-4.288 1.476-8.494 4.154-11.842l7.327-9.158h7.038l7.327 9.158c1.758 2.197 2.985 4.767 3.63 7.483-2.036.629-4.149 1.066-6.32 1.254l-1.242.108.174 1.992 1.242-.108c2.232-.194 4.403-.638 6.502-1.27.1.79.168 1.584.168 2.383 0 1.722-.304 3.398-.871 5h-7.129v8h-14.476c-4.645-2.677-7.524-7.632-7.524-13zm0 22v-4c0-1.654 1.346-3 3-3h3v10h-3c-1.654 0-3-1.346-3-3zm40.553.342c.892-.446 1.447-1.344 1.447-2.342s-.555-1.896-1.447-2.342l-2.553-1.276v-17.382h6v24h-4.764zm17.447.658h-6v-36h6z"/><path d="m35 3h6v2h-6z"/><path d="m43 3h10v2h-10z"/><path d="m35 7h18v2h-18z"/><path d="m35 11h10v2h-10z"/><path d="m35 15h2v2h-2z"/><path d="m39 15h2v2h-2z"/><path d="m43 15h2v2h-2z"/></g></g></svg>