<?xml version="1.0"?>
<svg xmlns="http://www.w3.org/2000/svg" xmlns:xlink="http://www.w3.org/1999/xlink" xmlns:svgjs="http://svgjs.com/svgjs" version="1.1" width="512" height="512" x="0" y="0" viewBox="0 0 512 512" style="enable-background:new 0 0 512 512" xml:space="preserve" class=""><g><g xmlns="http://www.w3.org/2000/svg"><g><path d="m305.951 33.301h-99.902v-16.651c0-9.196 7.455-16.65 16.65-16.65h66.602c9.196 0 16.65 7.455 16.65 16.65z" fill="#407093" data-original="#407093" style=""/></g><g><path d="m422.504 512h-333.008c-11.495 0-20.813-9.318-20.813-20.813v-437.073c0-11.495 9.318-20.813 20.813-20.813h333.008c11.495 0 20.813 9.318 20.813 20.813v437.073c0 11.495-9.318 20.813-20.813 20.813z" fill="#9d6b6b" data-original="#9d6b6b" style="" class=""/></g><g><path d="m422.504 33.301h-24.976c11.495 0 20.813 9.318 20.813 20.813v437.073c0 11.495-9.318 20.813-20.813 20.813h24.976c11.495 0 20.813-9.318 20.813-20.813v-437.073c0-11.495-9.318-20.813-20.813-20.813z" fill="#8b5e5e" data-original="#8b5e5e" style="" class=""/></g><g><path d="m101.984 468.397v-391.494c0-5.69 4.612-10.302 10.302-10.302h287.429c5.69 0 10.302 4.612 10.302 10.302v391.494c0 5.69-4.612 10.302-10.302 10.302h-287.429c-5.69 0-10.302-4.612-10.302-10.302z" fill="#000000" data-original="#e4f6ff" style="" class=""/></g><g><path d="m135.285 435.097v-12.697c0-5.69 4.612-10.302 10.302-10.302h220.827c5.69 0 10.302 4.612 10.302 10.302v12.697c0 5.69-4.612 10.302-10.302 10.302h-220.828c-5.689-.001-10.301-4.613-10.301-10.302z" fill="#fffa11" data-original="#707dd3" style="" class=""/></g><g><path d="m328.846 99.902h-145.692c-5.747 0-10.406-4.659-10.406-10.407v-45.788c0-5.747 4.659-10.407 10.406-10.407h145.691c5.747 0 10.407 4.659 10.407 10.407v45.789c0 5.747-4.659 10.406-10.406 10.406z" fill="#5c90b9" data-original="#5c90b9" style="" class=""/></g><g><path d="m328.846 33.301h-23.935c5.747 0 10.406 4.659 10.406 10.407v45.789c0 5.747-4.659 10.407-10.406 10.407h23.935c5.747 0 10.407-4.659 10.407-10.407v-45.79c-.001-5.747-4.66-10.406-10.407-10.406z" fill="#4a80aa" data-original="#4a80aa" style="" class=""/></g><g><g><path d="m135.285 226.966v-83.461c0-5.69 4.612-10.302 10.302-10.302h90.746c5.69 0 10.302 4.612 10.302 10.302v83.461c0 5.69-4.612 10.302-10.302 10.302h-90.746c-5.69 0-10.302-4.612-10.302-10.302z" fill="#ffffffaa" data-original="#b3e59f" style="" class=""/></g></g><g><path d="m376.715 175.618h-96.78c-4.267 0-7.726-3.459-7.726-7.726 0-4.268 3.459-7.726 7.726-7.726h96.78c4.267 0 7.726 3.459 7.726 7.726.001 4.267-3.459 7.726-7.726 7.726z" fill="#ffffff" data-original="#b1e4f9" style="" class=""/></g><g><path d="m376.715 140.93h-75.967c-4.267 0-7.726-3.459-7.726-7.726s3.459-7.726 7.726-7.726h75.967c4.267 0 7.726 3.459 7.726 7.726s-3.459 7.726-7.726 7.726z" fill="#ffffff" data-original="#b1e4f9" style="" class=""/></g><g><path d="m376.715 210.306h-96.78c-4.267 0-7.726-3.459-7.726-7.726 0-4.268 3.459-7.726 7.726-7.726h96.78c4.267 0 7.726 3.459 7.726 7.726.001 4.267-3.459 7.726-7.726 7.726z" fill="#ffffff" data-original="#b1e4f9" style="" class=""/></g><g><path d="m376.715 244.995h-96.78c-4.267 0-7.726-3.459-7.726-7.726s3.459-7.726 7.726-7.726h96.78c4.267 0 7.726 3.459 7.726 7.726s-3.459 7.726-7.726 7.726z" fill="#ffffff" data-original="#b1e4f9" style="" class=""/></g><g><path d="m376.715 279.683h-241.43c-4.267 0-7.726-3.459-7.726-7.726 0-4.268 3.459-7.726 7.726-7.726h241.431c4.267 0 7.726 3.459 7.726 7.726s-3.46 7.726-7.727 7.726z" fill="#ffffff" data-original="#b1e4f9" style="" class=""/></g><g><path d="m376.715 314.371h-241.43c-4.267 0-7.726-3.459-7.726-7.726s3.459-7.726 7.726-7.726h241.431c4.267 0 7.726 3.459 7.726 7.726s-3.46 7.726-7.727 7.726z" fill="#ffffff" data-original="#b1e4f9" style="" class=""/></g><g><path d="m293.463 349.059h-158.178c-4.267 0-7.726-3.459-7.726-7.726s3.459-7.726 7.726-7.726h158.179c4.267 0 7.726 3.459 7.726 7.726s-3.46 7.726-7.727 7.726z" fill="#ffffff" data-original="#b1e4f9" style="" class=""/></g></g></g></svg>
